<mxfile host="Electron" modified="2024-10-27T17:05:26.901Z" agent="Mozilla/5.0 (Windows NT 10.0; Win64; x64) AppleWebKit/537.36 (KHTML, like Gecko) draw.io/24.1.0 Chrome/120.0.6099.109 Electron/28.1.0 Safari/537.36" etag="4bbdgU6j0T1WH0xV2Joe" version="24.1.0" type="device">
  <diagram id="C5RBs43oDa-KdzZeNtuy" name="Page-1">
    <mxGraphModel dx="1050" dy="629" grid="1" gridSize="10" guides="1" tooltips="1" connect="1" arrows="1" fold="1" page="1" pageScale="1" pageWidth="827" pageHeight="1169" math="0" shadow="0">
      <root>
        <mxCell id="WIyWlLk6GJQsqaUBKTNV-0" />
        <mxCell id="WIyWlLk6GJQsqaUBKTNV-1" parent="WIyWlLk6GJQsqaUBKTNV-0" />
        <mxCell id="yEdVTW1fmJC-3qplavOq-11" value="&lt;b&gt;&lt;font style=&quot;font-size: 14px;&quot;&gt;SuperTetris&lt;/font&gt;&lt;/b&gt;" style="swimlane;fontStyle=0;childLayout=stackLayout;horizontal=1;startSize=26;fillColor=none;horizontalStack=0;resizeParent=1;resizeParentMax=0;resizeLast=0;collapsible=1;marginBottom=0;whiteSpace=wrap;html=1;" parent="WIyWlLk6GJQsqaUBKTNV-1" vertex="1">
          <mxGeometry x="34" y="50" width="370" height="624" as="geometry" />
        </mxCell>
        <mxCell id="yEdVTW1fmJC-3qplavOq-12" value="&lt;font style=&quot;font-size: 14px;&quot;&gt;- barrel_ : Barrel&amp;lt;ShapeShifts&amp;gt;&lt;/font&gt;" style="text;strokeColor=none;fillColor=none;align=left;verticalAlign=top;spacingLeft=4;spacingRight=4;overflow=hidden;rotatable=0;points=[[0,0.5],[1,0.5]];portConstraint=eastwest;whiteSpace=wrap;html=1;" parent="yEdVTW1fmJC-3qplavOq-11" vertex="1">
          <mxGeometry y="26" width="370" height="26" as="geometry" />
        </mxCell>
        <mxCell id="yEdVTW1fmJC-3qplavOq-15" value="&lt;font style=&quot;font-size: 14px;&quot;&gt;- board_: array&amp;lt;array&amp;lt;Flag&amp;gt;&amp;gt;&lt;/font&gt;" style="text;strokeColor=none;fillColor=none;align=left;verticalAlign=top;spacingLeft=4;spacingRight=4;overflow=hidden;rotatable=0;points=[[0,0.5],[1,0.5]];portConstraint=eastwest;whiteSpace=wrap;html=1;" parent="yEdVTW1fmJC-3qplavOq-11" vertex="1">
          <mxGeometry y="52" width="370" height="26" as="geometry" />
        </mxCell>
        <mxCell id="YVj5dyvishXiehygLBRD-0" value="&lt;font style=&quot;font-size: 14px;&quot;&gt;- present_coords_ : array&amp;lt;Position&amp;gt;&lt;/font&gt;" style="text;strokeColor=none;fillColor=none;align=left;verticalAlign=top;spacingLeft=4;spacingRight=4;overflow=hidden;rotatable=0;points=[[0,0.5],[1,0.5]];portConstraint=eastwest;whiteSpace=wrap;html=1;" parent="yEdVTW1fmJC-3qplavOq-11" vertex="1">
          <mxGeometry y="78" width="370" height="26" as="geometry" />
        </mxCell>
        <mxCell id="YVj5dyvishXiehygLBRD-1" value="&lt;font style=&quot;font-size: 14px;&quot;&gt;- result_ : Result&lt;/font&gt;" style="text;strokeColor=none;fillColor=none;align=left;verticalAlign=top;spacingLeft=4;spacingRight=4;overflow=hidden;rotatable=0;points=[[0,0.5],[1,0.5]];portConstraint=eastwest;whiteSpace=wrap;html=1;" parent="yEdVTW1fmJC-3qplavOq-11" vertex="1">
          <mxGeometry y="104" width="370" height="26" as="geometry" />
        </mxCell>
        <mxCell id="HIu1Xfh6mvCkes06a91q-1" value="&lt;font style=&quot;font-size: 14px;&quot;&gt;- SetValueByCoords(Flag c) : void&lt;/font&gt;" style="text;strokeColor=none;fillColor=none;align=left;verticalAlign=top;spacingLeft=4;spacingRight=4;overflow=hidden;rotatable=0;points=[[0,0.5],[1,0.5]];portConstraint=eastwest;whiteSpace=wrap;html=1;" parent="yEdVTW1fmJC-3qplavOq-11" vertex="1">
          <mxGeometry y="130" width="370" height="26" as="geometry" />
        </mxCell>
        <mxCell id="HIu1Xfh6mvCkes06a91q-14" value="&lt;font style=&quot;font-size: 14px;&quot;&gt;- ClearFullLines(): void&lt;/font&gt;" style="text;strokeColor=none;fillColor=none;align=left;verticalAlign=top;spacingLeft=4;spacingRight=4;overflow=hidden;rotatable=0;points=[[0,0.5],[1,0.5]];portConstraint=eastwest;whiteSpace=wrap;html=1;" parent="yEdVTW1fmJC-3qplavOq-11" vertex="1">
          <mxGeometry y="156" width="370" height="26" as="geometry" />
        </mxCell>
        <mxCell id="yEdVTW1fmJC-3qplavOq-18" value="&lt;font style=&quot;font-size: 14px;&quot;&gt;- IsValidShift(Position shift) : bool&lt;/font&gt;" style="text;strokeColor=none;fillColor=none;align=left;verticalAlign=top;spacingLeft=4;spacingRight=4;overflow=hidden;rotatable=0;points=[[0,0.5],[1,0.5]];portConstraint=eastwest;whiteSpace=wrap;html=1;" parent="yEdVTW1fmJC-3qplavOq-11" vertex="1">
          <mxGeometry y="182" width="370" height="26" as="geometry" />
        </mxCell>
        <mxCell id="yEdVTW1fmJC-3qplavOq-19" value="&lt;font style=&quot;font-size: 14px;&quot;&gt;- IsValidVeering() : bool&lt;/font&gt;" style="text;strokeColor=none;fillColor=none;align=left;verticalAlign=top;spacingLeft=4;spacingRight=4;overflow=hidden;rotatable=0;points=[[0,0.5],[1,0.5]];portConstraint=eastwest;whiteSpace=wrap;html=1;" parent="yEdVTW1fmJC-3qplavOq-11" vertex="1">
          <mxGeometry y="208" width="370" height="26" as="geometry" />
        </mxCell>
        <mxCell id="rrWhd9EpOOti9g91Ijpo-0" value="&lt;font style=&quot;font-size: 14px;&quot;&gt;- SetShapeCoords() : void&lt;/font&gt;" style="text;strokeColor=none;fillColor=none;align=left;verticalAlign=top;spacingLeft=4;spacingRight=4;overflow=hidden;rotatable=0;points=[[0,0.5],[1,0.5]];portConstraint=eastwest;whiteSpace=wrap;html=1;" parent="yEdVTW1fmJC-3qplavOq-11" vertex="1">
          <mxGeometry y="234" width="370" height="26" as="geometry" />
        </mxCell>
        <mxCell id="YVj5dyvishXiehygLBRD-2" value="&lt;font style=&quot;font-size: 14px;&quot;&gt;- SetShift(Position shift) :&amp;nbsp; void&lt;/font&gt;" style="text;strokeColor=none;fillColor=none;align=left;verticalAlign=top;spacingLeft=4;spacingRight=4;overflow=hidden;rotatable=0;points=[[0,0.5],[1,0.5]];portConstraint=eastwest;whiteSpace=wrap;html=1;" parent="yEdVTW1fmJC-3qplavOq-11" vertex="1">
          <mxGeometry y="260" width="370" height="26" as="geometry" />
        </mxCell>
        <mxCell id="YVj5dyvishXiehygLBRD-4" value="&lt;font style=&quot;font-size: 14px;&quot;&gt;+ ResetGame() : void&lt;/font&gt;" style="text;strokeColor=none;fillColor=none;align=left;verticalAlign=top;spacingLeft=4;spacingRight=4;overflow=hidden;rotatable=0;points=[[0,0.5],[1,0.5]];portConstraint=eastwest;whiteSpace=wrap;html=1;" parent="yEdVTW1fmJC-3qplavOq-11" vertex="1">
          <mxGeometry y="286" width="370" height="26" as="geometry" />
        </mxCell>
        <mxCell id="YVj5dyvishXiehygLBRD-3" value="&lt;font style=&quot;font-size: 14px;&quot;&gt;+ GetCurrentShape() : Shape&lt;/font&gt;" style="text;strokeColor=none;fillColor=none;align=left;verticalAlign=top;spacingLeft=4;spacingRight=4;overflow=hidden;rotatable=0;points=[[0,0.5],[1,0.5]];portConstraint=eastwest;whiteSpace=wrap;html=1;" parent="yEdVTW1fmJC-3qplavOq-11" vertex="1">
          <mxGeometry y="312" width="370" height="26" as="geometry" />
        </mxCell>
        <mxCell id="YVj5dyvishXiehygLBRD-5" value="&lt;font style=&quot;font-size: 14px;&quot;&gt;+ GetNextShape() : Shape&lt;/font&gt;" style="text;strokeColor=none;fillColor=none;align=left;verticalAlign=top;spacingLeft=4;spacingRight=4;overflow=hidden;rotatable=0;points=[[0,0.5],[1,0.5]];portConstraint=eastwest;whiteSpace=wrap;html=1;" parent="yEdVTW1fmJC-3qplavOq-11" vertex="1">
          <mxGeometry y="338" width="370" height="26" as="geometry" />
        </mxCell>
        <mxCell id="YVj5dyvishXiehygLBRD-8" value="&lt;font style=&quot;font-size: 14px;&quot;&gt;+ ResetShape() : void&lt;/font&gt;" style="text;strokeColor=none;fillColor=none;align=left;verticalAlign=top;spacingLeft=4;spacingRight=4;overflow=hidden;rotatable=0;points=[[0,0.5],[1,0.5]];portConstraint=eastwest;whiteSpace=wrap;html=1;" parent="yEdVTW1fmJC-3qplavOq-11" vertex="1">
          <mxGeometry y="364" width="370" height="26" as="geometry" />
        </mxCell>
        <mxCell id="YVj5dyvishXiehygLBRD-6" value="&lt;font style=&quot;font-size: 14px;&quot;&gt;+ GetResult() : Result&lt;/font&gt;" style="text;strokeColor=none;fillColor=none;align=left;verticalAlign=top;spacingLeft=4;spacingRight=4;overflow=hidden;rotatable=0;points=[[0,0.5],[1,0.5]];portConstraint=eastwest;whiteSpace=wrap;html=1;" parent="yEdVTW1fmJC-3qplavOq-11" vertex="1">
          <mxGeometry y="390" width="370" height="26" as="geometry" />
        </mxCell>
        <mxCell id="YVj5dyvishXiehygLBRD-7" value="&lt;font style=&quot;font-size: 14px;&quot;&gt;+ ClearBoard() : void&lt;/font&gt;" style="text;strokeColor=none;fillColor=none;align=left;verticalAlign=top;spacingLeft=4;spacingRight=4;overflow=hidden;rotatable=0;points=[[0,0.5],[1,0.5]];portConstraint=eastwest;whiteSpace=wrap;html=1;" parent="yEdVTW1fmJC-3qplavOq-11" vertex="1">
          <mxGeometry y="416" width="370" height="26" as="geometry" />
        </mxCell>
        <mxCell id="yEdVTW1fmJC-3qplavOq-22" value="&lt;font style=&quot;font-size: 14px;&quot;&gt;+ Down() : void&lt;/font&gt;" style="text;strokeColor=none;fillColor=none;align=left;verticalAlign=top;spacingLeft=4;spacingRight=4;overflow=hidden;rotatable=0;points=[[0,0.5],[1,0.5]];portConstraint=eastwest;whiteSpace=wrap;html=1;" parent="yEdVTW1fmJC-3qplavOq-11" vertex="1">
          <mxGeometry y="442" width="370" height="26" as="geometry" />
        </mxCell>
        <mxCell id="yEdVTW1fmJC-3qplavOq-23" value="&lt;font style=&quot;font-size: 14px;&quot;&gt;+ TurnRight(): void&lt;/font&gt;" style="text;strokeColor=none;fillColor=none;align=left;verticalAlign=top;spacingLeft=4;spacingRight=4;overflow=hidden;rotatable=0;points=[[0,0.5],[1,0.5]];portConstraint=eastwest;whiteSpace=wrap;html=1;" parent="yEdVTW1fmJC-3qplavOq-11" vertex="1">
          <mxGeometry y="468" width="370" height="26" as="geometry" />
        </mxCell>
        <mxCell id="yEdVTW1fmJC-3qplavOq-24" value="&lt;font style=&quot;font-size: 14px;&quot;&gt;+ TurnLeft() : void&lt;/font&gt;" style="text;strokeColor=none;fillColor=none;align=left;verticalAlign=top;spacingLeft=4;spacingRight=4;overflow=hidden;rotatable=0;points=[[0,0.5],[1,0.5]];portConstraint=eastwest;whiteSpace=wrap;html=1;" parent="yEdVTW1fmJC-3qplavOq-11" vertex="1">
          <mxGeometry y="494" width="370" height="26" as="geometry" />
        </mxCell>
        <mxCell id="yEdVTW1fmJC-3qplavOq-28" value="&lt;font style=&quot;font-size: 14px;&quot;&gt;+ VeerLeft() : void&lt;/font&gt;" style="text;strokeColor=none;fillColor=none;align=left;verticalAlign=top;spacingLeft=4;spacingRight=4;overflow=hidden;rotatable=0;points=[[0,0.5],[1,0.5]];portConstraint=eastwest;whiteSpace=wrap;html=1;" parent="yEdVTW1fmJC-3qplavOq-11" vertex="1">
          <mxGeometry y="520" width="370" height="26" as="geometry" />
        </mxCell>
        <mxCell id="yEdVTW1fmJC-3qplavOq-29" value="&lt;font style=&quot;font-size: 14px;&quot;&gt;+ VeerRight() : void&lt;/font&gt;" style="text;strokeColor=none;fillColor=none;align=left;verticalAlign=top;spacingLeft=4;spacingRight=4;overflow=hidden;rotatable=0;points=[[0,0.5],[1,0.5]];portConstraint=eastwest;whiteSpace=wrap;html=1;" parent="yEdVTW1fmJC-3qplavOq-11" vertex="1">
          <mxGeometry y="546" width="370" height="26" as="geometry" />
        </mxCell>
        <mxCell id="HIu1Xfh6mvCkes06a91q-2" value="&lt;font style=&quot;font-size: 14px;&quot;&gt;+ GetBoard(): array&amp;lt;array&amp;lt;Flag&amp;gt;&amp;gt;&lt;/font&gt;" style="text;strokeColor=none;fillColor=none;align=left;verticalAlign=top;spacingLeft=4;spacingRight=4;overflow=hidden;rotatable=0;points=[[0,0.5],[1,0.5]];portConstraint=eastwest;whiteSpace=wrap;html=1;" parent="yEdVTW1fmJC-3qplavOq-11" vertex="1">
          <mxGeometry y="572" width="370" height="26" as="geometry" />
        </mxCell>
        <mxCell id="HIu1Xfh6mvCkes06a91q-12" value="&lt;font style=&quot;font-size: 14px;&quot;&gt;+ CheckGameEnded(): bool&lt;/font&gt;" style="text;strokeColor=none;fillColor=none;align=left;verticalAlign=top;spacingLeft=4;spacingRight=4;overflow=hidden;rotatable=0;points=[[0,0.5],[1,0.5]];portConstraint=eastwest;whiteSpace=wrap;html=1;" parent="yEdVTW1fmJC-3qplavOq-11" vertex="1">
          <mxGeometry y="598" width="370" height="26" as="geometry" />
        </mxCell>
        <mxCell id="HIu1Xfh6mvCkes06a91q-3" value="&lt;div style=&quot;font-size: 14px;&quot;&gt;&lt;b style=&quot;&quot;&gt;&lt;font style=&quot;font-size: 14px;&quot;&gt;Flag&lt;/font&gt;&lt;/b&gt;&lt;/div&gt;&lt;div style=&quot;&quot;&gt;&lt;b style=&quot;&quot;&gt;&lt;font style=&quot;font-size: 12px;&quot;&gt;&amp;lt;&amp;lt;enum&amp;gt;&amp;gt;&lt;/font&gt;&lt;/b&gt;&lt;/div&gt;" style="swimlane;fontStyle=0;childLayout=stackLayout;horizontal=1;startSize=26;fillColor=none;horizontalStack=0;resizeParent=1;resizeParentMax=0;resizeLast=0;collapsible=1;marginBottom=0;whiteSpace=wrap;html=1;" parent="WIyWlLk6GJQsqaUBKTNV-1" vertex="1">
          <mxGeometry x="150" y="758" width="110" height="104" as="geometry" />
        </mxCell>
        <mxCell id="HIu1Xfh6mvCkes06a91q-4" value="&lt;font style=&quot;font-size: 14px;&quot;&gt;EMPTY = &#39;A&#39;&lt;/font&gt;" style="text;strokeColor=none;fillColor=none;align=left;verticalAlign=top;spacingLeft=4;spacingRight=4;overflow=hidden;rotatable=0;points=[[0,0.5],[1,0.5]];portConstraint=eastwest;whiteSpace=wrap;html=1;" parent="HIu1Xfh6mvCkes06a91q-3" vertex="1">
          <mxGeometry y="26" width="110" height="26" as="geometry" />
        </mxCell>
        <mxCell id="HIu1Xfh6mvCkes06a91q-5" value="&lt;font style=&quot;font-size: 14px;&quot;&gt;INTALLED = &#39;B&#39;&lt;/font&gt;" style="text;strokeColor=none;fillColor=none;align=left;verticalAlign=top;spacingLeft=4;spacingRight=4;overflow=hidden;rotatable=0;points=[[0,0.5],[1,0.5]];portConstraint=eastwest;whiteSpace=wrap;html=1;" parent="HIu1Xfh6mvCkes06a91q-3" vertex="1">
          <mxGeometry y="52" width="110" height="26" as="geometry" />
        </mxCell>
        <mxCell id="HIu1Xfh6mvCkes06a91q-6" value="&lt;font style=&quot;font-size: 14px;&quot;&gt;ACTIVE = &#39;C&#39;&lt;/font&gt;" style="text;strokeColor=none;fillColor=none;align=left;verticalAlign=top;spacingLeft=4;spacingRight=4;overflow=hidden;rotatable=0;points=[[0,0.5],[1,0.5]];portConstraint=eastwest;whiteSpace=wrap;html=1;" parent="HIu1Xfh6mvCkes06a91q-3" vertex="1">
          <mxGeometry y="78" width="110" height="26" as="geometry" />
        </mxCell>
        <mxCell id="HIu1Xfh6mvCkes06a91q-13" value="" style="endArrow=open;endFill=1;endSize=12;html=1;rounded=0;exitX=0.5;exitY=0;exitDx=0;exitDy=0;entryX=0.463;entryY=1.015;entryDx=0;entryDy=0;entryPerimeter=0;" parent="WIyWlLk6GJQsqaUBKTNV-1" source="HIu1Xfh6mvCkes06a91q-3" target="HIu1Xfh6mvCkes06a91q-12" edge="1">
          <mxGeometry width="160" relative="1" as="geometry">
            <mxPoint x="200" y="310" as="sourcePoint" />
            <mxPoint x="104" y="670" as="targetPoint" />
          </mxGeometry>
        </mxCell>
        <mxCell id="HIu1Xfh6mvCkes06a91q-15" value="&lt;div&gt;&lt;b&gt;&lt;font style=&quot;font-size: 14px;&quot;&gt;ShapeType&lt;/font&gt;&lt;/b&gt;&lt;/div&gt;&lt;div&gt;&lt;b&gt;&amp;lt;&amp;lt;enum&amp;gt;&amp;gt;&lt;/b&gt;&lt;/div&gt;" style="swimlane;fontStyle=0;childLayout=stackLayout;horizontal=1;startSize=26;fillColor=none;horizontalStack=0;resizeParent=1;resizeParentMax=0;resizeLast=0;collapsible=1;marginBottom=0;whiteSpace=wrap;html=1;" parent="WIyWlLk6GJQsqaUBKTNV-1" vertex="1">
          <mxGeometry x="274" y="758" width="140" height="208" as="geometry" />
        </mxCell>
        <mxCell id="HIu1Xfh6mvCkes06a91q-16" value="&lt;font style=&quot;font-size: 14px;&quot;&gt;O = 0&lt;/font&gt;" style="text;strokeColor=none;fillColor=none;align=left;verticalAlign=top;spacingLeft=4;spacingRight=4;overflow=hidden;rotatable=0;points=[[0,0.5],[1,0.5]];portConstraint=eastwest;whiteSpace=wrap;html=1;" parent="HIu1Xfh6mvCkes06a91q-15" vertex="1">
          <mxGeometry y="26" width="140" height="26" as="geometry" />
        </mxCell>
        <mxCell id="HIu1Xfh6mvCkes06a91q-17" value="&lt;font style=&quot;font-size: 14px;&quot;&gt;L = 1&lt;/font&gt;" style="text;strokeColor=none;fillColor=none;align=left;verticalAlign=top;spacingLeft=4;spacingRight=4;overflow=hidden;rotatable=0;points=[[0,0.5],[1,0.5]];portConstraint=eastwest;whiteSpace=wrap;html=1;" parent="HIu1Xfh6mvCkes06a91q-15" vertex="1">
          <mxGeometry y="52" width="140" height="26" as="geometry" />
        </mxCell>
        <mxCell id="HIu1Xfh6mvCkes06a91q-18" value="&lt;font style=&quot;font-size: 14px;&quot;&gt;J = 2&lt;/font&gt;" style="text;strokeColor=none;fillColor=none;align=left;verticalAlign=top;spacingLeft=4;spacingRight=4;overflow=hidden;rotatable=0;points=[[0,0.5],[1,0.5]];portConstraint=eastwest;whiteSpace=wrap;html=1;" parent="HIu1Xfh6mvCkes06a91q-15" vertex="1">
          <mxGeometry y="78" width="140" height="26" as="geometry" />
        </mxCell>
        <mxCell id="HIu1Xfh6mvCkes06a91q-20" value="&lt;font style=&quot;font-size: 14px;&quot;&gt;I = 3&lt;/font&gt;" style="text;strokeColor=none;fillColor=none;align=left;verticalAlign=top;spacingLeft=4;spacingRight=4;overflow=hidden;rotatable=0;points=[[0,0.5],[1,0.5]];portConstraint=eastwest;whiteSpace=wrap;html=1;" parent="HIu1Xfh6mvCkes06a91q-15" vertex="1">
          <mxGeometry y="104" width="140" height="26" as="geometry" />
        </mxCell>
        <mxCell id="HIu1Xfh6mvCkes06a91q-21" value="&lt;font style=&quot;font-size: 14px;&quot;&gt;T = 4&lt;/font&gt;" style="text;strokeColor=none;fillColor=none;align=left;verticalAlign=top;spacingLeft=4;spacingRight=4;overflow=hidden;rotatable=0;points=[[0,0.5],[1,0.5]];portConstraint=eastwest;whiteSpace=wrap;html=1;" parent="HIu1Xfh6mvCkes06a91q-15" vertex="1">
          <mxGeometry y="130" width="140" height="26" as="geometry" />
        </mxCell>
        <mxCell id="HIu1Xfh6mvCkes06a91q-22" value="&lt;font style=&quot;font-size: 14px;&quot;&gt;Z = 5&lt;/font&gt;" style="text;strokeColor=none;fillColor=none;align=left;verticalAlign=top;spacingLeft=4;spacingRight=4;overflow=hidden;rotatable=0;points=[[0,0.5],[1,0.5]];portConstraint=eastwest;whiteSpace=wrap;html=1;" parent="HIu1Xfh6mvCkes06a91q-15" vertex="1">
          <mxGeometry y="156" width="140" height="26" as="geometry" />
        </mxCell>
        <mxCell id="HIu1Xfh6mvCkes06a91q-23" value="&lt;font style=&quot;font-size: 14px;&quot;&gt;S = 6&lt;/font&gt;" style="text;strokeColor=none;fillColor=none;align=left;verticalAlign=top;spacingLeft=4;spacingRight=4;overflow=hidden;rotatable=0;points=[[0,0.5],[1,0.5]];portConstraint=eastwest;whiteSpace=wrap;html=1;" parent="HIu1Xfh6mvCkes06a91q-15" vertex="1">
          <mxGeometry y="182" width="140" height="26" as="geometry" />
        </mxCell>
        <mxCell id="HIu1Xfh6mvCkes06a91q-19" value="" style="endArrow=open;endFill=1;endSize=12;html=1;rounded=0;exitX=0.5;exitY=0;exitDx=0;exitDy=0;entryX=0.835;entryY=0.985;entryDx=0;entryDy=0;entryPerimeter=0;" parent="WIyWlLk6GJQsqaUBKTNV-1" source="HIu1Xfh6mvCkes06a91q-15" target="HIu1Xfh6mvCkes06a91q-12" edge="1">
          <mxGeometry width="160" relative="1" as="geometry">
            <mxPoint x="200" y="310" as="sourcePoint" />
            <mxPoint x="310" y="680" as="targetPoint" />
          </mxGeometry>
        </mxCell>
        <mxCell id="YVj5dyvishXiehygLBRD-9" value="&lt;font size=&quot;1&quot; style=&quot;&quot;&gt;&lt;b style=&quot;&quot;&gt;&lt;i style=&quot;font-size: 14px;&quot;&gt;Result&lt;/i&gt;&lt;/b&gt;&lt;/font&gt;" style="swimlane;fontStyle=0;childLayout=stackLayout;horizontal=1;startSize=26;fillColor=none;horizontalStack=0;resizeParent=1;resizeParentMax=0;resizeLast=0;collapsible=1;marginBottom=0;whiteSpace=wrap;html=1;movable=1;resizable=1;rotatable=1;deletable=1;editable=1;locked=0;connectable=1;" parent="WIyWlLk6GJQsqaUBKTNV-1" vertex="1">
          <mxGeometry x="10" y="758" width="130" height="110" as="geometry" />
        </mxCell>
        <mxCell id="YVj5dyvishXiehygLBRD-10" value="&lt;font style=&quot;font-size: 14px;&quot;&gt;+ score_ : int&lt;/font&gt;" style="text;strokeColor=none;fillColor=none;align=left;verticalAlign=top;spacingLeft=4;spacingRight=4;overflow=hidden;rotatable=0;points=[[0,0.5],[1,0.5]];portConstraint=eastwest;whiteSpace=wrap;html=1;" parent="YVj5dyvishXiehygLBRD-9" vertex="1">
          <mxGeometry y="26" width="130" height="26" as="geometry" />
        </mxCell>
        <mxCell id="YVj5dyvishXiehygLBRD-11" value="&lt;font style=&quot;font-size: 14px;&quot;&gt;+ rm_lines_ : int&lt;/font&gt;" style="text;strokeColor=none;fillColor=none;align=left;verticalAlign=top;spacingLeft=4;spacingRight=4;overflow=hidden;rotatable=0;points=[[0,0.5],[1,0.5]];portConstraint=eastwest;whiteSpace=wrap;html=1;" parent="YVj5dyvishXiehygLBRD-9" vertex="1">
          <mxGeometry y="52" width="130" height="26" as="geometry" />
        </mxCell>
        <mxCell id="YVj5dyvishXiehygLBRD-12" value="&lt;font style=&quot;font-size: 14px;&quot;&gt;+ Reset() : void&lt;/font&gt;" style="text;strokeColor=none;fillColor=none;align=left;verticalAlign=top;spacingLeft=4;spacingRight=4;overflow=hidden;rotatable=0;points=[[0,0.5],[1,0.5]];portConstraint=eastwest;whiteSpace=wrap;html=1;" parent="YVj5dyvishXiehygLBRD-9" vertex="1">
          <mxGeometry y="78" width="130" height="32" as="geometry" />
        </mxCell>
        <mxCell id="YVj5dyvishXiehygLBRD-15" value="" style="endArrow=open;endFill=1;endSize=12;html=1;rounded=0;exitX=0.5;exitY=0;exitDx=0;exitDy=0;entryX=0.11;entryY=0.923;entryDx=0;entryDy=0;entryPerimeter=0;" parent="WIyWlLk6GJQsqaUBKTNV-1" source="YVj5dyvishXiehygLBRD-9" target="HIu1Xfh6mvCkes06a91q-12" edge="1">
          <mxGeometry width="160" relative="1" as="geometry">
            <mxPoint x="330" y="830" as="sourcePoint" />
            <mxPoint x="490" y="830" as="targetPoint" />
          </mxGeometry>
        </mxCell>
        <mxCell id="YVj5dyvishXiehygLBRD-17" value="&lt;font style=&quot;font-size: 14px;&quot;&gt;&lt;b&gt;Barrel&lt;/b&gt;&lt;/font&gt;&lt;div&gt;&lt;font style=&quot;&quot;&gt;&lt;b style=&quot;&quot;&gt;&lt;span style=&quot;font-size: 14px;&quot;&gt;&amp;lt;&amp;lt;&lt;/span&gt;&lt;font style=&quot;font-size: 12px;&quot;&gt;template &lt;/font&gt;&lt;span style=&quot;font-size: 14px;&quot;&gt;T&amp;gt;&amp;gt;&lt;/span&gt;&lt;/b&gt;&lt;/font&gt;&lt;/div&gt;" style="swimlane;fontStyle=0;childLayout=stackLayout;horizontal=1;startSize=26;fillColor=none;horizontalStack=0;resizeParent=1;resizeParentMax=0;resizeLast=0;collapsible=1;marginBottom=0;whiteSpace=wrap;html=1;" parent="WIyWlLk6GJQsqaUBKTNV-1" vertex="1">
          <mxGeometry x="490" y="50" width="140" height="170" as="geometry" />
        </mxCell>
        <mxCell id="YVj5dyvishXiehygLBRD-18" value="&lt;font style=&quot;font-size: 14px;&quot;&gt;- barrel_ : array&amp;lt;T&amp;gt;&lt;/font&gt;" style="text;strokeColor=none;fillColor=none;align=left;verticalAlign=top;spacingLeft=4;spacingRight=4;overflow=hidden;rotatable=0;points=[[0,0.5],[1,0.5]];portConstraint=eastwest;whiteSpace=wrap;html=1;" parent="YVj5dyvishXiehygLBRD-17" vertex="1">
          <mxGeometry y="26" width="140" height="26" as="geometry" />
        </mxCell>
        <mxCell id="YVj5dyvishXiehygLBRD-19" value="&lt;font style=&quot;font-size: 14px;&quot;&gt;- present_ : T*&lt;/font&gt;" style="text;strokeColor=none;fillColor=none;align=left;verticalAlign=top;spacingLeft=4;spacingRight=4;overflow=hidden;rotatable=0;points=[[0,0.5],[1,0.5]];portConstraint=eastwest;whiteSpace=wrap;html=1;" parent="YVj5dyvishXiehygLBRD-17" vertex="1">
          <mxGeometry y="52" width="140" height="26" as="geometry" />
        </mxCell>
        <mxCell id="YVj5dyvishXiehygLBRD-20" value="&lt;font style=&quot;font-size: 14px;&quot;&gt;+ Next(): T*&lt;/font&gt;" style="text;strokeColor=none;fillColor=none;align=left;verticalAlign=top;spacingLeft=4;spacingRight=4;overflow=hidden;rotatable=0;points=[[0,0.5],[1,0.5]];portConstraint=eastwest;whiteSpace=wrap;html=1;" parent="YVj5dyvishXiehygLBRD-17" vertex="1">
          <mxGeometry y="78" width="140" height="26" as="geometry" />
        </mxCell>
        <mxCell id="YVj5dyvishXiehygLBRD-21" value="&lt;font style=&quot;font-size: 14px;&quot;&gt;+ GetPatron() : T*&lt;/font&gt;" style="text;strokeColor=none;fillColor=none;align=left;verticalAlign=top;spacingLeft=4;spacingRight=4;overflow=hidden;rotatable=0;points=[[0,0.5],[1,0.5]];portConstraint=eastwest;whiteSpace=wrap;html=1;" parent="YVj5dyvishXiehygLBRD-17" vertex="1">
          <mxGeometry y="104" width="140" height="26" as="geometry" />
        </mxCell>
        <mxCell id="YVj5dyvishXiehygLBRD-23" value="&lt;font style=&quot;font-size: 14px;&quot;&gt;+ Move() : void&lt;/font&gt;" style="text;strokeColor=none;fillColor=none;align=left;verticalAlign=top;spacingLeft=4;spacingRight=4;overflow=hidden;rotatable=0;points=[[0,0.5],[1,0.5]];portConstraint=eastwest;whiteSpace=wrap;html=1;" parent="YVj5dyvishXiehygLBRD-17" vertex="1">
          <mxGeometry y="130" width="140" height="40" as="geometry" />
        </mxCell>
        <mxCell id="YVj5dyvishXiehygLBRD-25" value="" style="endArrow=diamondThin;endFill=0;endSize=24;html=1;rounded=0;exitX=0;exitY=0.5;exitDx=0;exitDy=0;entryX=1;entryY=0.5;entryDx=0;entryDy=0;" parent="WIyWlLk6GJQsqaUBKTNV-1" source="YVj5dyvishXiehygLBRD-19" target="yEdVTW1fmJC-3qplavOq-15" edge="1">
          <mxGeometry width="160" relative="1" as="geometry">
            <mxPoint x="330" y="200" as="sourcePoint" />
            <mxPoint x="490" y="200" as="targetPoint" />
          </mxGeometry>
        </mxCell>
        <mxCell id="YVj5dyvishXiehygLBRD-26" value="&lt;font size=&quot;1&quot; style=&quot;&quot;&gt;&lt;b style=&quot;&quot;&gt;&lt;i style=&quot;font-size: 14px;&quot;&gt;ShapeShifts&lt;/i&gt;&lt;/b&gt;&lt;/font&gt;" style="swimlane;fontStyle=0;childLayout=stackLayout;horizontal=1;startSize=26;fillColor=none;horizontalStack=0;resizeParent=1;resizeParentMax=0;resizeLast=0;collapsible=1;marginBottom=0;whiteSpace=wrap;html=1;movable=1;resizable=1;rotatable=1;deletable=1;editable=1;locked=0;connectable=1;" parent="WIyWlLk6GJQsqaUBKTNV-1" vertex="1">
          <mxGeometry x="420" y="280" width="323" height="334" as="geometry" />
        </mxCell>
        <mxCell id="YVj5dyvishXiehygLBRD-27" value="&lt;font style=&quot;font-size: 14px;&quot;&gt;- shapes_shifts : array&amp;lt;ShapeShift&amp;gt;&lt;/font&gt;" style="text;strokeColor=none;fillColor=none;align=left;verticalAlign=top;spacingLeft=4;spacingRight=4;overflow=hidden;rotatable=0;points=[[0,0.5],[1,0.5]];portConstraint=eastwest;whiteSpace=wrap;html=1;" parent="YVj5dyvishXiehygLBRD-26" vertex="1">
          <mxGeometry y="26" width="323" height="26" as="geometry" />
        </mxCell>
        <mxCell id="YVj5dyvishXiehygLBRD-28" value="&lt;font style=&quot;font-size: 14px;&quot;&gt;- shape_num_ : int&lt;/font&gt;" style="text;strokeColor=none;fillColor=none;align=left;verticalAlign=top;spacingLeft=4;spacingRight=4;overflow=hidden;rotatable=0;points=[[0,0.5],[1,0.5]];portConstraint=eastwest;whiteSpace=wrap;html=1;" parent="YVj5dyvishXiehygLBRD-26" vertex="1">
          <mxGeometry y="52" width="323" height="26" as="geometry" />
        </mxCell>
        <mxCell id="YVj5dyvishXiehygLBRD-29" value="&lt;div&gt;&lt;font style=&quot;font-size: 14px;&quot;&gt;- shape_pos_ : int&lt;/font&gt;&lt;/div&gt;" style="text;strokeColor=none;fillColor=none;align=left;verticalAlign=top;spacingLeft=4;spacingRight=4;overflow=hidden;rotatable=0;points=[[0,0.5],[1,0.5]];portConstraint=eastwest;whiteSpace=wrap;html=1;" parent="YVj5dyvishXiehygLBRD-26" vertex="1">
          <mxGeometry y="78" width="323" height="32" as="geometry" />
        </mxCell>
        <mxCell id="YVj5dyvishXiehygLBRD-30" value="&lt;font style=&quot;font-size: 14px;&quot;&gt;- GetShape() : ShapeShift&amp;nbsp;&lt;/font&gt;" style="text;strokeColor=none;fillColor=none;align=left;verticalAlign=top;spacingLeft=4;spacingRight=4;overflow=hidden;rotatable=0;points=[[0,0.5],[1,0.5]];portConstraint=eastwest;whiteSpace=wrap;html=1;" parent="YVj5dyvishXiehygLBRD-26" vertex="1">
          <mxGeometry y="110" width="323" height="32" as="geometry" />
        </mxCell>
        <mxCell id="YVj5dyvishXiehygLBRD-31" value="&lt;font style=&quot;font-size: 14px;&quot;&gt;+ GetShifts() : array&amp;lt;Position, 3&amp;gt;&lt;/font&gt;" style="text;strokeColor=none;fillColor=none;align=left;verticalAlign=top;spacingLeft=4;spacingRight=4;overflow=hidden;rotatable=0;points=[[0,0.5],[1,0.5]];portConstraint=eastwest;whiteSpace=wrap;html=1;" parent="YVj5dyvishXiehygLBRD-26" vertex="1">
          <mxGeometry y="142" width="323" height="32" as="geometry" />
        </mxCell>
        <mxCell id="YVj5dyvishXiehygLBRD-32" value="&lt;font style=&quot;font-size: 14px;&quot;&gt;+ Reset() : void&lt;/font&gt;" style="text;strokeColor=none;fillColor=none;align=left;verticalAlign=top;spacingLeft=4;spacingRight=4;overflow=hidden;rotatable=0;points=[[0,0.5],[1,0.5]];portConstraint=eastwest;whiteSpace=wrap;html=1;" parent="YVj5dyvishXiehygLBRD-26" vertex="1">
          <mxGeometry y="174" width="323" height="32" as="geometry" />
        </mxCell>
        <mxCell id="YVj5dyvishXiehygLBRD-33" value="&lt;font style=&quot;font-size: 14px;&quot;&gt;+ Next() : void&lt;/font&gt;" style="text;strokeColor=none;fillColor=none;align=left;verticalAlign=top;spacingLeft=4;spacingRight=4;overflow=hidden;rotatable=0;points=[[0,0.5],[1,0.5]];portConstraint=eastwest;whiteSpace=wrap;html=1;" parent="YVj5dyvishXiehygLBRD-26" vertex="1">
          <mxGeometry y="206" width="323" height="32" as="geometry" />
        </mxCell>
        <mxCell id="YVj5dyvishXiehygLBRD-34" value="&lt;font style=&quot;font-size: 14px;&quot;&gt;+ Previous() : void&lt;/font&gt;" style="text;strokeColor=none;fillColor=none;align=left;verticalAlign=top;spacingLeft=4;spacingRight=4;overflow=hidden;rotatable=0;points=[[0,0.5],[1,0.5]];portConstraint=eastwest;whiteSpace=wrap;html=1;" parent="YVj5dyvishXiehygLBRD-26" vertex="1">
          <mxGeometry y="238" width="323" height="32" as="geometry" />
        </mxCell>
        <mxCell id="YVj5dyvishXiehygLBRD-36" value="&lt;font style=&quot;font-size: 14px;&quot;&gt;+ Shape&amp;lt;&amp;lt;&amp;lt;enum&amp;gt;&amp;gt;&amp;gt;&lt;/font&gt;" style="text;strokeColor=none;fillColor=none;align=left;verticalAlign=top;spacingLeft=4;spacingRight=4;overflow=hidden;rotatable=0;points=[[0,0.5],[1,0.5]];portConstraint=eastwest;whiteSpace=wrap;html=1;" parent="YVj5dyvishXiehygLBRD-26" vertex="1">
          <mxGeometry y="270" width="323" height="32" as="geometry" />
        </mxCell>
        <mxCell id="YVj5dyvishXiehygLBRD-35" value="&lt;font style=&quot;font-size: 14px;&quot;&gt;+ GetShapeNum() : Shape&lt;/font&gt;" style="text;strokeColor=none;fillColor=none;align=left;verticalAlign=top;spacingLeft=4;spacingRight=4;overflow=hidden;rotatable=0;points=[[0,0.5],[1,0.5]];portConstraint=eastwest;whiteSpace=wrap;html=1;" parent="YVj5dyvishXiehygLBRD-26" vertex="1">
          <mxGeometry y="302" width="323" height="32" as="geometry" />
        </mxCell>
        <mxCell id="YVj5dyvishXiehygLBRD-37" value="" style="endArrow=diamondThin;endFill=0;endSize=24;html=1;rounded=0;entryX=0.503;entryY=0.96;entryDx=0;entryDy=0;entryPerimeter=0;exitX=0.432;exitY=0.006;exitDx=0;exitDy=0;exitPerimeter=0;" parent="WIyWlLk6GJQsqaUBKTNV-1" source="YVj5dyvishXiehygLBRD-26" target="YVj5dyvishXiehygLBRD-23" edge="1">
          <mxGeometry width="160" relative="1" as="geometry">
            <mxPoint x="558" y="260" as="sourcePoint" />
            <mxPoint x="490" y="290" as="targetPoint" />
          </mxGeometry>
        </mxCell>
        <mxCell id="YVj5dyvishXiehygLBRD-40" value="&lt;b style=&quot;font-size: 14px;&quot;&gt;&lt;font style=&quot;font-size: 14px;&quot;&gt;Position&lt;/font&gt;&lt;/b&gt;&lt;div style=&quot;&quot;&gt;&lt;b style=&quot;&quot;&gt;&lt;font style=&quot;font-size: 12px;&quot;&gt;&amp;lt;&amp;lt;&amp;lt;struct&amp;gt;&amp;gt;&amp;gt;&lt;/font&gt;&lt;/b&gt;&lt;/div&gt;" style="swimlane;fontStyle=0;childLayout=stackLayout;horizontal=1;startSize=26;fillColor=none;horizontalStack=0;resizeParent=1;resizeParentMax=0;resizeLast=0;collapsible=1;marginBottom=0;whiteSpace=wrap;html=1;" parent="WIyWlLk6GJQsqaUBKTNV-1" vertex="1">
          <mxGeometry x="490" y="761" width="140" height="104" as="geometry" />
        </mxCell>
        <mxCell id="YVj5dyvishXiehygLBRD-41" value="&lt;font style=&quot;font-size: 14px;&quot;&gt;+ x_ : int&lt;/font&gt;" style="text;strokeColor=none;fillColor=none;align=left;verticalAlign=top;spacingLeft=4;spacingRight=4;overflow=hidden;rotatable=0;points=[[0,0.5],[1,0.5]];portConstraint=eastwest;whiteSpace=wrap;html=1;" parent="YVj5dyvishXiehygLBRD-40" vertex="1">
          <mxGeometry y="26" width="140" height="26" as="geometry" />
        </mxCell>
        <mxCell id="YVj5dyvishXiehygLBRD-42" value="&lt;font style=&quot;font-size: 14px;&quot;&gt;+ y_ : int&lt;/font&gt;" style="text;strokeColor=none;fillColor=none;align=left;verticalAlign=top;spacingLeft=4;spacingRight=4;overflow=hidden;rotatable=0;points=[[0,0.5],[1,0.5]];portConstraint=eastwest;whiteSpace=wrap;html=1;" parent="YVj5dyvishXiehygLBRD-40" vertex="1">
          <mxGeometry y="52" width="140" height="26" as="geometry" />
        </mxCell>
        <mxCell id="YVj5dyvishXiehygLBRD-43" value="&lt;font style=&quot;font-size: 14px;&quot;&gt;+ IsValid() : bool&lt;/font&gt;" style="text;strokeColor=none;fillColor=none;align=left;verticalAlign=top;spacingLeft=4;spacingRight=4;overflow=hidden;rotatable=0;points=[[0,0.5],[1,0.5]];portConstraint=eastwest;whiteSpace=wrap;html=1;" parent="YVj5dyvishXiehygLBRD-40" vertex="1">
          <mxGeometry y="78" width="140" height="26" as="geometry" />
        </mxCell>
        <mxCell id="YVj5dyvishXiehygLBRD-44" value="" style="endArrow=diamondThin;endFill=0;endSize=24;html=1;rounded=0;exitX=0;exitY=0;exitDx=0;exitDy=0;entryX=1;entryY=0.5;entryDx=0;entryDy=0;" parent="WIyWlLk6GJQsqaUBKTNV-1" source="YVj5dyvishXiehygLBRD-40" target="HIu1Xfh6mvCkes06a91q-12" edge="1">
          <mxGeometry width="160" relative="1" as="geometry">
            <mxPoint x="330" y="790" as="sourcePoint" />
            <mxPoint x="490" y="790" as="targetPoint" />
          </mxGeometry>
        </mxCell>
      </root>
    </mxGraphModel>
  </diagram>
</mxfile>
